<svg id="svg" version="1.1" width="400" height="240.75" viewBox="0 0 400 240.75" xmlns="http://www.w3.org/2000/svg" xmlns:xlink="http://www.w3.org/1999/xlink" ><g id="svgg"><path id="path0" d="M296.448 94.699 C 285.974 99.316,286.035 99.259,284.189 106.323 C 283.532 108.839,282.387 113.227,281.644 116.075 C 279.908 122.728,274.601 142.762,274.117 144.491 C 273.766 145.741,273.411 146.155,267.812 151.836 C 253.947 165.904,247.393 175.854,246.290 184.508 C 245.632 189.672,247.401 192.305,251.950 192.936 C 260.720 194.151,269.001 185.235,276.142 166.889 C 277.856 162.485,281.569 151.535,283.083 146.418 C 284.815 140.564,284.242 141.466,288.685 137.602 C 295.661 131.534,295.830 131.314,294.529 130.012 L 293.813 129.297 292.877 129.836 C 292.362 130.132,290.544 131.649,288.836 133.208 C 287.129 134.766,285.700 135.952,285.662 135.844 C 285.624 135.736,287.446 130.133,289.711 123.393 C 298.876 96.113,299.078 95.441,298.326 94.690 C 297.975 94.339,297.257 94.342,296.448 94.699 M168.934 95.988 C 163.616 97.538,163.176 97.880,161.989 101.385 C 157.145 115.675,154.273 127.826,154.274 134.016 C 154.276 142.222,159.770 146.185,167.470 143.535 C 176.583 140.398,192.790 119.889,200.341 101.939 C 203.026 95.554,202.673 94.716,197.662 95.573 C 194.113 96.180,193.542 96.471,192.999 97.948 C 187.211 113.689,181.009 126.519,175.999 133.115 C 170.876 139.859,164.975 142.126,162.686 138.229 C 160.921 135.224,164.199 121.590,170.793 104.515 C 174.562 94.757,174.478 94.373,168.934 95.988 M237.929 95.364 C 229.033 96.343,219.517 103.002,212.860 112.905 C 203.634 126.629,202.969 139.616,211.297 143.429 C 216.983 146.032,224.549 142.458,232.326 133.495 C 235.061 130.344,235.646 129.628,239.049 125.264 C 241.033 122.721,241.039 122.737,239.892 127.308 C 236.772 139.746,238.574 144.730,245.988 144.168 C 251.071 143.782,253.521 142.161,261.243 134.074 C 264.840 130.307,265.501 129.154,264.528 128.347 C 263.908 127.832,262.703 128.611,260.385 131.023 C 255.526 136.080,251.601 138.336,249.321 137.383 C 246.878 136.362,247.312 133.563,251.973 120.289 C 255.004 111.658,259.144 100.110,259.354 99.699 C 260.596 97.275,259.780 96.568,255.739 96.568 C 251.888 96.568,252.250 96.284,249.450 101.505 C 234.457 129.464,223.619 141.391,217.334 136.850 C 213.750 134.261,216.398 123.158,223.352 111.620 C 230.469 99.810,237.045 96.513,244.513 101.011 L 245.860 101.821 246.680 100.339 C 248.310 97.392,248.306 96.091,246.667 95.747 C 243.817 95.150,240.995 95.027,237.929 95.364 M338.471 95.365 C 326.050 96.873,313.165 108.970,307.667 124.288 C 302.632 138.315,310.148 148.041,321.884 142.685 C 326.722 140.476,331.169 136.159,339.253 125.821 C 340.479 124.255,341.481 123.046,341.481 123.136 C 341.481 123.226,341.053 125.006,340.529 127.092 C 337.346 139.779,339.167 144.760,346.776 144.174 C 351.224 143.831,353.343 142.520,359.616 136.235 C 365.579 130.260,366.289 129.259,365.202 128.357 C 364.546 127.812,363.398 128.587,360.268 131.688 C 353.253 138.636,348.455 139.661,348.468 134.208 C 348.473 132.140,352.547 119.768,358.643 103.311 C 361.156 96.525,361.172 96.568,356.240 96.568 C 352.688 96.568,352.758 96.522,350.847 100.124 C 347.497 106.442,339.458 120.094,337.415 122.938 C 328.694 135.073,323.711 138.913,318.791 137.289 C 314.690 135.936,315.575 128.193,321.120 116.918 C 329.018 100.855,336.736 95.848,345.403 101.166 L 346.556 101.873 347.654 99.602 C 348.855 97.117,348.876 96.550,347.785 95.992 C 346.386 95.277,341.763 94.965,338.471 95.365 M270.680 153.707 C 270.680 154.604,261.789 179.833,260.561 182.421 C 258.362 187.052,255.559 189.358,252.657 188.923 C 245.749 187.887,253.201 171.483,267.163 156.988 C 269.897 154.150,270.680 153.419,270.680 153.707 " stroke="none" fill="#1e6dba" fill-rule="evenodd"></path><path id="path1" d="M0.000 120.409 L 0.000 240.819 200.000 240.819 L 400.000 240.819 400.000 120.409 L 400.000 0.000 200.000 0.000 L 0.000 0.000 0.000 120.409 M47.955 58.391 C 77.033 62.299,100.931 62.261,127.617 58.264 C 139.441 56.493,143.618 61.978,140.829 75.617 C 140.355 77.935,139.896 80.238,139.810 80.734 C 139.613 81.867,139.901 81.897,134.618 80.182 C 125.209 77.126,115.074 75.119,102.830 73.887 C 90.644 72.661,73.367 74.468,65.006 77.841 C 56.629 81.222,51.884 87.577,53.435 93.339 C 54.276 96.463,58.774 100.833,73.691 113.017 C 77.598 116.209,82.780 120.444,85.207 122.429 C 97.033 132.102,101.089 138.323,98.639 143.033 C 94.463 151.065,78.222 153.379,58.037 148.817 C 52.833 147.641,49.634 146.556,35.812 141.277 C 34.632 140.826,34.149 140.734,34.080 140.946 C 34.027 141.108,33.927 141.457,33.858 141.722 C 33.727 142.225,33.746 141.941,34.303 135.099 C 34.492 132.781,34.721 129.232,34.813 127.213 L 34.980 123.540 36.154 123.540 C 36.979 123.540,37.327 123.637,37.327 123.866 C 37.327 124.201,35.506 135.420,35.259 136.604 C 35.123 137.257,35.138 137.267,36.334 137.267 C 37.513 137.267,37.550 137.246,37.681 136.484 C 37.925 135.070,39.735 123.760,39.735 123.649 C 39.735 123.589,40.753 123.540,41.997 123.540 L 44.258 123.540 44.357 122.690 C 44.491 121.544,44.800 121.613,39.575 121.613 L 34.919 121.613 34.919 115.653 C 34.918 103.355,33.696 89.549,31.425 76.193 C 30.152 68.705,30.398 65.564,32.494 62.517 C 35.452 58.217,39.207 57.215,47.955 58.391 M302.738 64.826 C 308.207 67.338,309.535 74.774,305.276 79.033 C 300.977 83.332,293.792 82.107,291.090 76.614 C 287.507 69.332,295.325 61.420,302.738 64.826 M105.907 78.154 C 116.401 79.247,129.073 83.264,137.719 88.237 L 138.533 88.705 138.388 90.168 C 137.357 100.586,137.029 106.192,137.029 113.426 C 137.028 121.621,137.634 130.780,138.720 138.991 C 139.279 143.214,139.533 144.680,141.014 152.236 C 143.004 162.393,141.811 166.810,136.393 169.345 C 133.274 170.805,132.578 170.803,121.011 169.309 C 95.812 166.053,72.852 166.102,48.838 169.461 C 40.207 170.668,37.497 170.275,34.329 167.355 C 31.353 164.612,30.784 161.110,32.043 153.284 C 33.053 147.003,32.899 147.552,33.539 147.958 C 33.834 148.145,34.780 148.375,35.641 148.467 C 36.502 148.560,38.724 148.994,40.578 149.432 C 76.729 157.969,111.725 155.770,120.310 144.422 C 123.349 140.405,123.175 137.340,119.603 131.996 C 116.487 127.333,112.949 124.122,96.328 110.874 C 79.381 97.367,75.738 93.453,75.738 88.754 C 75.738 82.845,81.367 79.335,93.076 77.943 C 95.112 77.700,102.765 77.827,105.907 78.154 M298.416 94.559 C 299.247 95.311,298.892 96.570,292.355 116.057 C 288.781 126.710,285.886 135.455,285.922 135.490 C 285.957 135.526,287.229 134.420,288.749 133.033 C 290.268 131.646,292.004 130.203,292.606 129.827 L 293.702 129.143 294.321 129.653 C 296.206 131.203,296.043 131.436,288.477 138.026 L 284.979 141.074 283.964 144.288 C 274.546 174.110,268.867 185.510,260.693 191.005 C 254.843 194.937,247.180 193.561,246.105 188.386 C 244.501 180.657,251.416 168.505,265.946 153.522 C 269.157 150.211,272.230 147.012,272.775 146.415 L 273.767 145.328 276.338 135.457 C 277.752 130.029,279.490 123.474,280.199 120.891 C 280.909 118.308,282.309 112.944,283.311 108.970 C 285.795 99.115,285.079 100.162,291.590 96.869 C 297.123 94.071,297.672 93.885,298.416 94.559 M173.176 95.392 C 174.069 96.285,173.878 97.043,170.656 105.358 C 165.820 117.841,162.129 131.326,162.358 135.677 C 162.704 142.275,169.320 141.138,175.534 133.412 C 180.031 127.822,187.135 113.509,191.610 101.023 C 193.142 96.748,193.115 96.801,194.005 96.281 C 194.607 95.928,199.617 94.883,200.704 94.883 C 207.823 94.883,185.141 132.050,172.636 140.874 C 163.441 147.363,154.471 144.591,153.954 135.099 C 153.714 130.700,156.049 119.670,159.817 107.405 C 162.776 97.775,162.786 97.761,167.851 96.135 C 172.370 94.685,172.457 94.673,173.176 95.392 M244.709 95.207 C 248.483 95.774,248.824 96.471,247.053 99.993 C 245.948 102.192,246.255 102.104,243.838 100.912 C 235.281 96.692,228.444 101.357,220.850 116.597 C 215.581 127.169,214.351 134.933,217.639 136.853 C 223.337 140.181,232.050 131.603,243.880 111.017 C 245.592 108.037,247.267 105.166,247.602 104.636 C 247.936 104.106,248.941 102.232,249.835 100.472 C 251.825 96.554,251.912 96.486,255.131 96.367 C 260.811 96.157,260.864 96.334,257.678 104.877 C 251.320 121.928,247.989 132.235,248.093 134.536 C 248.315 139.442,252.343 138.438,259.360 131.728 C 263.251 128.008,263.920 127.566,264.655 128.232 C 265.779 129.249,265.300 130.041,260.496 135.097 C 253.513 142.447,250.467 144.264,245.170 144.240 C 238.009 144.207,236.417 138.865,239.866 126.443 C 240.738 123.301,240.778 123.310,238.599 126.146 C 228.089 139.830,221.752 144.564,214.422 144.209 C 205.866 143.795,202.779 134.522,207.365 123.007 C 214.681 104.638,230.268 93.034,244.709 95.207 M345.265 95.220 C 349.101 95.840,349.426 96.404,347.845 99.703 C 346.644 102.208,346.661 102.194,345.614 101.508 C 338.577 96.890,331.982 99.529,325.463 109.573 C 317.238 122.246,314.118 134.694,318.600 136.966 C 323.943 139.674,332.862 131.221,342.676 114.148 C 343.780 112.228,345.526 109.234,346.556 107.496 C 347.586 105.758,348.883 103.428,349.439 102.319 C 352.422 96.362,352.584 96.230,356.799 96.364 C 361.376 96.510,361.356 96.346,357.950 105.759 C 349.536 129.016,347.956 134.292,348.872 136.059 C 350.389 138.983,353.764 137.670,359.873 131.782 C 363.794 128.001,364.649 127.466,365.361 128.345 C 366.263 129.459,365.763 130.272,361.355 134.859 C 353.903 142.613,351.214 144.252,345.953 144.249 C 338.838 144.245,337.209 139.436,340.280 127.502 C 340.808 125.450,341.240 123.706,341.240 123.627 C 341.240 123.549,340.292 124.720,339.133 126.232 C 336.048 130.255,330.923 136.234,329.164 137.863 C 314.636 151.323,300.824 142.215,307.733 123.731 C 314.675 105.158,330.831 92.885,345.265 95.220 M76.904 121.623 C 72.840 122.427,70.162 126.600,70.357 131.827 C 70.663 140.057,80.972 139.394,83.592 130.975 C 85.489 124.882,82.383 120.539,76.904 121.623 M48.973 123.841 C 47.811 126.150,42.625 137.054,42.625 137.190 C 42.625 137.232,43.174 137.267,43.846 137.267 L 45.067 137.267 46.175 134.859 L 47.284 132.450 49.611 132.450 L 51.939 132.450 52.246 134.859 L 52.553 137.267 53.730 137.267 C 55.182 137.267,55.173 138.078,53.823 129.079 C 53.227 125.106,52.739 121.801,52.739 121.734 C 52.739 121.668,52.144 121.613,51.417 121.613 L 50.095 121.613 48.973 123.841 M58.510 121.915 C 58.506 122.080,58.963 125.602,59.526 129.741 L 60.550 137.267 61.883 137.252 L 63.215 137.237 66.928 129.686 C 71.118 121.169,70.941 121.734,69.416 121.734 L 68.272 121.734 67.147 124.022 C 66.528 125.280,65.283 127.908,64.381 129.862 C 62.641 133.632,62.463 133.866,62.275 132.631 C 62.100 131.483,60.918 122.006,60.923 121.794 C 60.925 121.695,60.385 121.613,59.723 121.613 C 58.925 121.613,58.516 121.715,58.510 121.915 M80.207 124.156 C 83.816 127.613,79.719 137.054,75.249 135.579 C 70.333 133.956,73.261 122.848,78.465 123.379 C 79.179 123.452,79.727 123.696,80.207 124.156 M51.610 130.584 C 51.461 130.844,48.459 130.807,48.297 130.544 C 48.177 130.350,49.820 126.660,50.611 125.346 C 50.898 124.870,51.894 130.090,51.610 130.584 M266.919 157.561 C 261.985 162.633,261.182 163.653,255.849 171.626 C 250.337 179.867,248.575 187.318,251.836 188.591 C 255.461 190.005,259.279 186.183,262.089 178.326 C 264.878 170.531,270.466 154.124,270.333 154.124 C 270.294 154.124,268.758 155.671,266.919 157.561 " stroke="none" fill="#fbfbfb" fill-rule="evenodd"></path><path id="path2" d="M38.591 58.409 C 32.054 60.170,29.796 65.421,31.414 75.103 C 32.577 82.064,33.650 90.149,34.183 95.966 C 34.850 103.262,34.986 105.746,35.127 113.305 L 35.280 121.493 39.916 121.558 C 45.023 121.631,44.914 121.591,44.320 123.154 C 44.100 123.732,43.985 123.765,41.977 123.832 L 39.865 123.901 38.777 130.644 L 37.688 137.387 36.511 137.462 C 34.822 137.569,34.834 137.735,36.007 130.760 C 37.306 123.035,37.293 123.781,36.123 123.781 C 35.169 123.781,35.160 123.790,35.160 124.688 C 35.160 126.791,34.353 138.007,34.080 139.711 C 33.865 141.046,52.650 147.703,61.409 149.395 C 78.433 152.684,92.552 150.762,97.518 144.479 C 101.801 139.062,98.143 133.061,83.174 120.948 C 79.809 118.224,76.447 115.496,70.199 110.416 C 55.149 98.180,52.015 94.241,53.220 89.071 C 57.085 72.473,97.006 68.148,135.290 80.179 C 139.747 81.580,139.556 81.592,139.776 79.897 C 139.867 79.199,140.326 76.677,140.796 74.293 C 143.239 61.908,138.883 56.643,127.634 58.385 C 121.250 59.374,113.628 60.335,109.452 60.677 C 89.550 62.311,69.876 61.624,47.930 58.529 C 43.924 57.964,40.412 57.919,38.591 58.409 M297.050 64.383 C 289.308 66.392,288.022 76.693,295.046 80.437 C 299.668 82.900,305.435 80.591,307.218 75.562 C 309.456 69.251,303.504 62.708,297.050 64.383 M94.521 77.933 C 82.129 78.938,75.301 83.158,75.949 89.413 C 76.423 93.985,79.840 97.472,98.363 112.280 C 113.313 124.233,117.033 127.685,120.357 132.689 C 132.905 151.585,91.304 161.126,43.709 150.268 C 36.976 148.732,36.297 148.594,35.453 148.589 C 35.018 148.587,34.303 148.435,33.865 148.252 L 33.067 147.919 32.276 152.833 C 30.868 161.578,31.587 165.142,35.334 168.000 C 38.121 170.126,41.204 170.431,48.766 169.331 C 65.112 166.953,85.626 166.045,99.579 167.082 C 110.194 167.872,117.228 168.595,125.886 169.787 C 134.524 170.976,138.355 169.693,140.663 164.839 C 142.161 161.689,142.181 159.479,140.777 152.257 C 137.994 137.939,136.480 121.460,136.910 110.175 C 136.976 108.453,137.087 105.581,137.156 103.793 C 137.283 100.516,138.126 90.406,138.355 89.407 C 138.559 88.517,129.782 84.302,122.974 82.020 C 114.121 79.053,102.069 77.322,94.521 77.933 M81.286 121.825 C 84.085 123.096,85.061 127.284,83.567 131.607 C 80.844 139.484,70.685 139.903,70.131 132.162 C 69.617 124.985,75.744 119.308,81.286 121.825 M53.183 123.721 C 53.347 124.880,53.857 128.139,54.315 130.965 C 55.435 137.875,55.462 137.508,53.842 137.508 C 52.391 137.508,52.479 137.631,52.137 135.099 C 52.057 134.503,51.934 133.718,51.864 133.353 L 51.738 132.691 49.529 132.692 L 47.321 132.693 46.197 135.100 L 45.072 137.508 43.863 137.508 C 42.161 137.508,42.150 137.583,44.645 132.419 C 45.885 129.853,47.556 126.373,48.358 124.684 L 49.816 121.613 51.350 121.613 L 52.884 121.613 53.183 123.721 M61.165 121.794 C 61.159 122.178,62.399 131.881,62.527 132.450 C 62.644 132.970,62.787 132.789,63.577 131.126 C 64.079 130.066,65.308 127.492,66.307 125.406 L 68.123 121.613 69.462 121.613 C 71.272 121.613,71.373 121.274,66.995 129.922 L 63.215 137.387 61.843 137.459 L 60.472 137.531 60.336 136.736 C 60.214 136.025,58.278 121.868,58.278 121.687 C 58.278 121.647,58.928 121.613,59.723 121.613 C 60.518 121.613,61.167 121.695,61.165 121.794 M77.418 123.529 C 73.865 124.352,71.519 131.087,73.713 134.168 C 75.780 137.070,79.831 134.988,81.024 130.411 C 82.130 126.162,80.390 122.841,77.418 123.529 M49.609 127.812 C 49.013 129.078,48.489 130.206,48.445 130.319 C 48.401 130.431,49.078 130.524,49.950 130.524 C 50.822 130.524,51.535 130.468,51.535 130.401 C 51.535 130.171,50.782 125.597,50.737 125.553 C 50.712 125.529,50.205 126.545,49.609 127.812 " stroke="none" fill="#ec2424" fill-rule="evenodd"></path><path id="path3" d="M41.361 57.973 C 41.924 58.024,42.845 58.024,43.408 57.973 C 43.970 57.922,43.510 57.881,42.384 57.881 C 41.258 57.881,40.798 57.922,41.361 57.973 M130.584 57.969 C 130.948 58.024,131.544 58.024,131.908 57.969 C 132.273 57.914,131.975 57.869,131.246 57.869 C 130.518 57.869,130.220 57.914,130.584 57.969 M52.559 59.167 C 52.790 59.227,53.170 59.227,53.402 59.167 C 53.633 59.106,53.444 59.056,52.980 59.056 C 52.517 59.056,52.327 59.106,52.559 59.167 M56.653 59.648 C 56.884 59.709,57.264 59.709,57.495 59.648 C 57.727 59.588,57.538 59.538,57.074 59.538 C 56.610 59.538,56.421 59.588,56.653 59.648 M58.943 59.893 C 59.243 59.951,59.676 59.949,59.906 59.889 C 60.137 59.828,59.892 59.781,59.362 59.784 C 58.832 59.786,58.644 59.836,58.943 59.893 M116.258 59.893 C 116.558 59.951,116.991 59.949,117.221 59.889 C 117.452 59.828,117.207 59.781,116.677 59.784 C 116.147 59.786,115.959 59.836,116.258 59.893 M139.149 60.988 C 140.813 62.887,141.378 64.474,141.611 67.911 L 141.800 70.680 141.735 67.911 C 141.651 64.342,141.141 62.912,139.264 60.975 L 137.934 59.603 139.149 60.988 M34.317 60.405 C 33.665 60.982,32.641 62.131,32.780 62.131 C 32.841 62.131,33.370 61.644,33.955 61.048 C 35.021 59.962,35.221 59.607,34.317 60.405 M62.011 60.204 C 63.254 60.410,65.660 60.515,65.483 60.356 C 65.427 60.306,64.353 60.207,63.095 60.136 C 61.463 60.043,61.152 60.063,62.011 60.204 M113.967 60.130 C 114.199 60.190,114.579 60.190,114.810 60.130 C 115.042 60.069,114.852 60.020,114.389 60.020 C 113.925 60.020,113.736 60.069,113.967 60.130 M110.656 60.332 C 108.655 61.076,83.171 61.516,74.533 60.956 C 72.282 60.811,69.410 60.642,68.152 60.582 L 65.864 60.474 67.670 60.686 C 77.466 61.838,99.991 61.724,111.740 60.464 C 113.438 60.282,113.467 60.269,112.222 60.256 C 111.493 60.249,110.789 60.283,110.656 60.332 M303.672 65.429 C 304.441 65.967,305.849 67.374,306.399 68.152 C 306.792 68.709,306.792 68.693,306.392 67.949 C 305.913 67.055,304.502 65.687,303.634 65.275 C 303.111 65.027,303.114 65.038,303.672 65.429 M292.625 66.817 C 291.433 68.079,290.415 69.914,290.439 70.760 C 290.445 70.981,290.619 70.681,290.825 70.092 C 291.324 68.667,291.748 68.009,293.050 66.647 C 293.650 66.017,294.081 65.503,294.005 65.503 C 293.930 65.503,293.309 66.094,292.625 66.817 M30.674 69.476 C 30.675 70.933,30.714 71.498,30.762 70.732 C 30.810 69.965,30.810 68.773,30.761 68.083 C 30.713 67.392,30.674 68.019,30.674 69.476 M140.692 74.777 C 140.261 77.027,139.919 79.031,139.932 79.229 C 139.944 79.428,140.328 77.748,140.784 75.497 C 141.240 73.246,141.583 71.242,141.545 71.045 C 141.507 70.848,141.123 72.527,140.692 74.777 M290.266 72.848 C 290.267 73.775,290.310 74.125,290.362 73.625 C 290.415 73.125,290.414 72.367,290.360 71.939 C 290.307 71.512,290.265 71.921,290.266 72.848 M91.571 73.387 C 92.333 73.435,93.579 73.435,94.341 73.387 C 95.102 73.339,94.479 73.300,92.956 73.300 C 91.433 73.300,90.810 73.339,91.571 73.387 M86.273 73.625 C 86.770 73.677,87.583 73.677,88.079 73.625 C 88.576 73.573,88.170 73.531,87.176 73.531 C 86.183 73.531,85.777 73.573,86.273 73.625 M98.682 73.626 C 99.248 73.677,100.115 73.677,100.608 73.625 C 101.102 73.573,100.638 73.531,99.579 73.532 C 98.519 73.533,98.115 73.575,98.682 73.626 M81.999 73.855 C 76.079 74.615,69.121 75.945,69.433 76.256 C 69.492 76.315,70.400 76.145,71.449 75.877 C 73.799 75.277,78.632 74.481,82.480 74.060 C 84.116 73.881,84.796 73.748,84.046 73.753 C 83.317 73.759,82.396 73.804,81.999 73.855 M104.756 74.084 C 106.544 74.269,109.849 74.695,112.101 75.032 C 114.353 75.369,116.574 75.689,117.038 75.744 L 117.881 75.845 117.038 75.621 C 114.811 75.029,104.382 73.669,102.468 73.721 C 101.939 73.736,102.968 73.899,104.756 74.084 M290.436 74.895 C 290.418 76.757,294.400 81.164,296.087 81.149 C 296.219 81.148,295.735 80.820,295.010 80.421 C 292.873 79.243,291.945 78.194,290.994 75.884 C 290.689 75.141,290.437 74.696,290.436 74.895 M305.839 78.126 C 303.987 80.468,301.412 81.547,298.169 81.339 C 296.849 81.254,296.498 81.286,296.930 81.450 C 299.707 82.509,305.075 80.322,306.574 77.521 C 306.959 76.802,306.750 76.974,305.839 78.126 M94.100 77.954 C 94.398 78.012,94.886 78.012,95.184 77.954 C 95.482 77.897,95.238 77.850,94.642 77.850 C 94.046 77.850,93.802 77.897,94.100 77.954 M101.806 77.954 C 102.104 78.012,102.592 78.012,102.890 77.954 C 103.188 77.897,102.944 77.850,102.348 77.850 C 101.752 77.850,101.508 77.897,101.806 77.954 M104.816 78.191 C 105.048 78.252,105.427 78.252,105.659 78.191 C 105.891 78.131,105.701 78.081,105.238 78.081 C 104.774 78.081,104.585 78.131,104.816 78.191 M61.349 79.367 C 60.448 79.856,60.503 80.059,61.409 79.591 C 61.806 79.385,62.131 79.166,62.131 79.103 C 62.131 78.948,62.105 78.957,61.349 79.367 M82.530 80.296 C 80.868 81.021,78.989 82.188,78.989 82.494 C 78.989 82.555,79.427 82.286,79.964 81.897 C 80.500 81.509,81.774 80.845,82.793 80.423 C 83.813 80.001,84.693 79.614,84.748 79.563 C 85.046 79.287,84.196 79.568,82.530 80.296 M114.509 79.711 C 114.774 79.825,115.208 79.915,115.473 79.911 C 115.860 79.905,115.836 79.866,115.352 79.711 C 114.529 79.447,113.896 79.447,114.509 79.711 M58.786 81.054 C 57.068 82.346,55.434 84.147,54.693 85.566 C 54.403 86.121,54.306 86.371,54.476 86.121 C 56.021 83.864,56.998 82.756,58.421 81.645 C 60.457 80.056,60.579 79.952,60.397 79.952 C 60.318 79.952,59.593 80.448,58.786 81.054 M118.536 80.681 C 119.957 81.062,122.062 81.703,123.215 82.105 C 124.368 82.507,125.350 82.798,125.397 82.751 C 125.649 82.499,117.243 79.926,116.315 79.971 C 116.117 79.980,117.116 80.300,118.536 80.681 M137.015 80.933 C 139.194 81.687,139.675 81.772,139.675 81.404 C 139.675 81.276,139.537 81.224,139.369 81.288 C 139.201 81.353,138.261 81.133,137.280 80.799 C 136.299 80.466,135.380 80.201,135.238 80.211 C 135.095 80.221,135.895 80.546,137.015 80.933 M76.448 85.513 C 76.237 85.923,76.106 86.301,76.158 86.353 C 76.210 86.405,76.433 86.070,76.654 85.608 C 77.149 84.569,76.977 84.490,76.448 85.513 M131.507 85.343 C 131.768 85.585,138.561 88.879,138.350 88.662 C 138.218 88.525,136.672 87.701,134.914 86.831 C 132.086 85.431,131.172 85.032,131.507 85.343 M75.769 87.237 C 75.586 87.921,75.616 89.528,75.826 90.277 C 75.914 90.592,75.984 89.915,75.982 88.773 C 75.978 86.479,75.976 86.464,75.769 87.237 M138.286 90.066 C 138.286 90.530,138.335 90.719,138.396 90.488 C 138.457 90.256,138.457 89.877,138.396 89.645 C 138.335 89.413,138.286 89.603,138.286 90.066 M53.036 90.307 C 53.036 90.771,53.086 90.960,53.146 90.728 C 53.207 90.497,53.207 90.117,53.146 89.886 C 53.086 89.654,53.036 89.843,53.036 90.307 M53.036 91.993 C 53.036 92.456,53.086 92.646,53.146 92.414 C 53.207 92.182,53.207 91.803,53.146 91.571 C 53.086 91.340,53.036 91.529,53.036 91.993 M33.775 93.317 C 33.778 93.847,33.827 94.035,33.885 93.736 C 33.943 93.436,33.940 93.003,33.880 92.773 C 33.820 92.542,33.773 92.787,33.775 93.317 M137.804 94.642 C 137.804 95.105,137.854 95.295,137.914 95.063 C 137.975 94.831,137.975 94.452,137.914 94.220 C 137.854 93.989,137.804 94.178,137.804 94.642 M34.024 95.725 C 34.026 96.388,34.073 96.630,34.128 96.264 C 34.184 95.898,34.182 95.356,34.125 95.060 C 34.068 94.764,34.023 95.063,34.024 95.725 M78.266 94.958 C 78.266 94.999,78.618 95.352,79.049 95.741 L 79.831 96.448 79.124 95.665 C 78.465 94.936,78.266 94.772,78.266 94.958 M54.435 95.824 C 54.806 96.569,58.384 100.285,60.566 102.191 C 61.493 103.001,60.720 102.149,58.849 100.297 C 56.977 98.445,55.153 96.550,54.796 96.087 C 54.416 95.595,54.266 95.485,54.435 95.824 M81.216 98.082 C 82.109 98.943,83.735 100.428,84.828 101.383 L 86.815 103.119 85.129 101.518 C 84.202 100.637,82.577 99.152,81.517 98.217 L 79.591 96.517 81.216 98.082 M137.563 97.291 C 137.563 97.754,137.613 97.944,137.674 97.712 C 137.734 97.480,137.734 97.101,137.674 96.869 C 137.613 96.638,137.563 96.827,137.563 97.291 M34.265 98.615 C 34.267 99.278,34.314 99.520,34.369 99.154 C 34.424 98.788,34.423 98.246,34.366 97.950 C 34.309 97.654,34.263 97.953,34.265 98.615 M137.336 100.542 C 137.337 101.204,137.384 101.446,137.440 101.080 C 137.495 100.714,137.493 100.172,137.436 99.876 C 137.379 99.580,137.334 99.880,137.336 100.542 M34.514 101.626 C 34.514 102.486,34.558 102.839,34.611 102.408 C 34.665 101.978,34.665 101.273,34.611 100.843 C 34.558 100.412,34.514 100.765,34.514 101.626 M137.107 104.997 C 137.107 105.990,137.149 106.397,137.201 105.900 C 137.253 105.403,137.253 104.591,137.201 104.094 C 137.149 103.597,137.107 104.004,137.107 104.997 M34.765 106.781 C 34.849 108.623,34.919 112.714,34.919 115.872 C 34.919 119.030,35.000 121.614,35.099 121.614 C 35.331 121.614,35.024 103.814,34.788 103.596 C 34.691 103.505,34.680 104.939,34.765 106.781 M62.372 103.647 C 62.372 103.785,67.192 107.981,68.874 109.307 C 69.603 109.881,69.866 110.040,69.459 109.661 C 68.175 108.461,62.372 103.538,62.372 103.647 M88.380 104.371 C 88.380 104.434,89.816 105.648,91.571 107.071 C 93.326 108.493,94.952 109.817,95.184 110.013 C 95.415 110.209,95.605 110.313,95.605 110.245 C 95.605 110.176,93.980 108.801,91.993 107.188 C 90.006 105.576,88.380 104.308,88.380 104.371 M136.871 113.787 C 136.870 114.979,136.911 115.497,136.961 114.938 C 137.012 114.379,137.012 113.404,136.962 112.771 C 136.913 112.138,136.871 112.595,136.871 113.787 M98.333 112.395 C 98.428 112.549,99.506 113.446,100.728 114.389 C 101.950 115.332,102.548 115.737,102.058 115.290 C 100.777 114.123,98.129 112.065,98.333 112.395 M72.968 112.552 C 72.968 112.618,73.781 113.336,74.774 114.148 C 75.768 114.960,76.580 115.570,76.580 115.504 C 76.580 115.437,75.768 114.719,74.774 113.907 C 73.781 113.096,72.968 112.486,72.968 112.552 M79.470 117.857 C 79.470 117.923,80.554 118.855,81.878 119.928 C 83.203 121.000,84.287 121.824,84.287 121.758 C 84.287 121.691,83.203 120.760,81.878 119.687 C 80.554 118.614,79.470 117.791,79.470 117.857 M105.479 118.073 C 105.479 118.131,106.644 119.120,108.067 120.272 C 109.491 121.424,110.158 121.899,109.550 121.327 C 108.346 120.197,105.479 117.905,105.479 118.073 M137.107 121.854 C 137.107 122.848,137.149 123.254,137.201 122.757 C 137.253 122.261,137.253 121.448,137.201 120.951 C 137.149 120.455,137.107 120.861,137.107 121.854 M48.753 123.806 C 48.148 125.012,47.691 126.037,47.738 126.084 C 47.785 126.131,48.333 125.145,48.955 123.892 C 49.578 122.639,50.035 121.613,49.971 121.613 C 49.907 121.613,49.359 122.600,48.753 123.806 M61.004 122.577 C 61.082 123.173,61.334 125.171,61.564 127.017 C 61.793 128.862,62.025 130.241,62.078 130.080 C 62.196 129.726,61.177 121.784,60.992 121.613 C 60.920 121.547,60.925 121.981,61.004 122.577 M81.953 122.376 C 82.325 122.686,82.849 123.210,83.118 123.541 C 83.386 123.872,83.526 123.980,83.429 123.781 C 83.148 123.208,82.284 122.314,81.758 122.052 C 81.483 121.915,81.567 122.054,81.953 122.376 M69.046 125.357 C 68.158 127.139,67.484 128.597,67.549 128.597 C 67.708 128.597,70.852 122.307,70.746 122.201 C 70.699 122.154,69.935 123.575,69.046 125.357 M73.077 123.600 L 72.125 124.624 73.149 123.672 C 73.712 123.148,74.172 122.688,74.172 122.648 C 74.172 122.466,73.962 122.648,73.077 123.600 M112.798 124.309 C 113.739 125.195,115.312 126.767,116.294 127.801 C 117.877 129.469,117.929 129.506,116.755 128.128 C 116.027 127.274,114.454 125.702,113.259 124.636 C 111.858 123.385,111.694 123.269,112.798 124.309 M34.967 125.406 L 35.014 127.273 35.098 125.527 L 35.181 123.781 36.117 123.781 C 36.896 123.781,37.070 123.872,37.157 124.323 C 37.246 124.787,37.266 124.770,37.294 124.202 C 37.326 123.564,37.284 123.540,36.123 123.540 L 34.919 123.540 34.967 125.406 M39.735 123.721 C 39.734 123.820,40.412 123.871,41.240 123.834 C 43.958 123.713,44.227 123.618,41.963 123.579 C 40.738 123.557,39.735 123.621,39.735 123.721 M66.630 124.635 C 66.064 125.821,66.143 126.023,66.735 124.902 C 67.003 124.393,67.181 123.934,67.129 123.882 C 67.077 123.830,66.852 124.169,66.630 124.635 M87.176 124.084 C 87.176 124.144,88.070 124.990,89.163 125.963 C 90.256 126.936,90.879 127.428,90.548 127.056 C 89.858 126.283,87.176 123.919,87.176 124.084 M74.822 125.045 C 74.169 125.929,73.728 126.690,74.090 126.309 C 74.537 125.840,75.640 124.262,75.521 124.262 C 75.455 124.262,75.140 124.615,74.822 125.045 M80.917 125.517 C 81.476 126.747,81.526 128.477,81.055 130.290 C 80.669 131.780,80.717 132.152,81.142 130.958 C 81.883 128.874,81.605 125.199,80.663 124.617 C 80.545 124.544,80.659 124.949,80.917 125.517 M35.953 131.027 C 35.397 134.392,35.029 137.233,35.137 137.341 C 35.533 137.737,37.681 137.421,37.722 136.961 C 37.748 136.662,37.726 136.644,37.646 136.901 C 37.405 137.676,35.096 137.390,35.257 136.604 C 35.708 134.404,37.094 125.568,37.036 125.269 C 36.997 125.071,36.510 127.662,35.953 131.027 M50.569 125.406 C 49.622 127.015,48.178 130.393,48.358 130.574 C 48.693 130.909,51.606 130.701,51.679 130.337 C 51.712 130.168,51.685 130.141,51.617 130.277 C 51.507 130.500,48.405 130.650,48.405 130.432 C 48.405 129.802,50.791 125.507,50.879 125.976 C 50.965 126.431,50.995 126.388,51.021 125.768 C 51.058 124.888,50.933 124.788,50.569 125.406 M137.332 126.189 C 137.332 126.785,137.379 127.029,137.437 126.731 C 137.494 126.433,137.494 125.945,137.437 125.647 C 137.379 125.349,137.332 125.593,137.332 126.189 M84.125 127.514 C 84.126 128.441,84.169 128.790,84.222 128.291 C 84.274 127.791,84.273 127.033,84.220 126.605 C 84.166 126.178,84.124 126.586,84.125 127.514 M34.762 129.320 C 34.762 130.446,34.804 130.906,34.854 130.343 C 34.905 129.780,34.905 128.859,34.854 128.296 C 34.804 127.733,34.762 128.194,34.762 129.320 M46.036 129.450 C 45.632 130.336,45.709 130.525,46.145 129.720 C 46.349 129.344,46.471 128.991,46.416 128.936 C 46.361 128.881,46.189 129.112,46.036 129.450 M64.338 129.450 C 63.934 130.336,64.011 130.525,64.448 129.720 C 64.651 129.344,64.773 128.991,64.718 128.936 C 64.663 128.881,64.492 129.112,64.338 129.450 M65.433 132.584 C 64.412 134.632,63.582 136.388,63.589 136.486 C 63.596 136.584,64.469 134.946,65.530 132.846 C 66.590 130.746,67.420 128.990,67.374 128.944 C 67.328 128.898,66.455 130.536,65.433 132.584 M137.563 129.561 C 137.563 130.024,137.613 130.214,137.674 129.982 C 137.734 129.750,137.734 129.371,137.674 129.139 C 137.613 128.907,137.563 129.097,137.563 129.561 M70.161 131.367 C 70.162 132.426,70.204 132.830,70.255 132.263 C 70.306 131.697,70.305 130.830,70.253 130.337 C 70.202 129.844,70.160 130.307,70.161 131.367 M94.686 131.382 C 95.174 131.945,95.970 132.957,96.455 133.632 C 96.939 134.307,97.385 134.859,97.445 134.859 C 97.683 134.859,96.023 132.659,94.943 131.542 C 94.050 130.618,93.993 130.583,94.686 131.382 M62.171 131.367 C 62.107 133.224,62.542 133.928,63.056 132.800 C 63.441 131.956,63.392 131.715,62.985 132.450 L 62.652 133.052 62.518 132.450 C 62.444 132.119,62.343 131.523,62.294 131.126 C 62.221 130.544,62.197 130.591,62.171 131.367 M120.142 132.753 C 121.172 134.366,122.026 136.382,122.413 138.110 C 122.516 138.571,122.522 138.570,122.549 138.087 C 122.617 136.849,120.950 133.225,119.567 131.607 C 119.227 131.210,119.486 131.726,120.142 132.753 M137.804 132.210 C 137.804 132.673,137.854 132.863,137.914 132.631 C 137.975 132.399,137.975 132.020,137.914 131.788 C 137.854 131.556,137.804 131.746,137.804 132.210 M34.514 133.414 C 34.514 134.275,34.558 134.627,34.611 134.196 C 34.665 133.766,34.665 133.061,34.611 132.631 C 34.558 132.200,34.514 132.553,34.514 133.414 M82.762 133.068 C 82.539 133.537,81.842 134.484,81.214 135.172 C 80.586 135.861,80.339 136.207,80.665 135.942 C 81.789 135.029,83.546 132.593,83.275 132.322 C 83.217 132.263,82.986 132.599,82.762 133.068 M49.412 132.630 C 51.371 132.696,51.761 132.774,51.852 133.121 C 51.931 133.421,51.969 133.386,51.989 132.992 C 52.016 132.461,51.970 132.451,49.548 132.501 L 47.080 132.551 49.412 132.630 M54.556 133.534 C 54.621 134.196,54.741 135.301,54.822 135.989 L 54.970 137.239 53.674 137.329 L 52.378 137.418 53.763 137.463 L 55.148 137.508 55.133 136.604 C 55.125 136.108,54.965 134.943,54.778 134.016 C 54.508 132.674,54.463 132.576,54.556 133.534 M79.706 133.301 C 79.417 133.769,78.787 134.419,78.306 134.746 C 77.825 135.073,77.541 135.340,77.674 135.340 C 78.083 135.340,79.566 133.990,80.026 133.199 C 80.626 132.166,80.354 132.252,79.706 133.301 M43.391 135.002 C 42.831 136.131,42.436 137.156,42.513 137.281 C 42.679 137.549,44.954 137.589,45.117 137.327 C 45.179 137.228,44.643 137.183,43.927 137.229 C 42.371 137.327,42.393 137.476,43.603 135.069 C 44.142 133.999,44.543 133.084,44.495 133.037 C 44.448 132.989,43.951 133.874,43.391 135.002 M73.422 134.057 C 73.727 134.658,74.831 135.584,75.228 135.574 C 75.376 135.570,75.280 135.451,75.015 135.310 C 74.750 135.169,74.224 134.712,73.845 134.294 C 73.387 133.789,73.245 133.709,73.422 134.057 M34.265 136.183 C 34.267 136.845,34.314 137.088,34.369 136.722 C 34.424 136.355,34.423 135.814,34.366 135.517 C 34.309 135.221,34.263 135.521,34.265 136.183 M61.112 137.441 C 61.545 137.495,62.195 137.494,62.557 137.439 C 62.919 137.384,62.565 137.340,61.770 137.341 C 60.975 137.343,60.679 137.388,61.112 137.441 M75.319 137.678 C 75.618 137.735,76.052 137.733,76.282 137.673 C 76.512 137.613,76.267 137.566,75.738 137.568 C 75.208 137.571,75.019 137.620,75.319 137.678 M34.021 138.952 C 34.021 139.548,34.068 139.792,34.125 139.494 C 34.183 139.196,34.183 138.709,34.125 138.411 C 34.068 138.113,34.021 138.356,34.021 138.952 M99.278 140.277 C 99.281 140.807,99.330 140.995,99.388 140.696 C 99.445 140.396,99.443 139.963,99.383 139.732 C 99.323 139.502,99.275 139.747,99.278 140.277 M33.743 141.300 C 33.758 141.797,33.818 141.987,33.877 141.722 C 34.122 140.614,34.135 140.606,35.071 140.997 C 35.558 141.200,35.998 141.325,36.049 141.274 C 36.156 141.167,34.311 140.397,33.951 140.397 C 33.821 140.397,33.727 140.804,33.743 141.300 M121.683 142.383 C 121.546 142.682,120.927 143.598,120.308 144.419 C 119.327 145.721,118.433 146.517,115.825 148.415 C 115.255 148.830,115.263 148.830,116.036 148.415 C 118.166 147.271,122.605 142.513,122.055 141.963 C 121.988 141.896,121.820 142.085,121.683 142.383 M96.810 145.333 C 96.500 145.663,95.668 146.332,94.962 146.818 C 93.537 147.799,93.269 148.125,94.437 147.455 C 95.211 147.011,97.765 144.758,97.513 144.741 C 97.437 144.736,97.121 145.002,96.810 145.333 M46.042 145.099 C 46.238 145.295,52.243 147.383,52.570 147.369 C 52.818 147.358,46.294 144.974,46.016 144.973 C 45.961 144.973,45.973 145.030,46.042 145.099 M53.341 147.622 C 53.606 147.736,53.986 147.829,54.184 147.829 C 54.412 147.829,54.367 147.752,54.064 147.622 C 53.799 147.508,53.420 147.415,53.221 147.415 C 52.993 147.415,53.038 147.491,53.341 147.622 M139.942 147.609 C 139.928 147.800,140.360 150.184,140.903 152.907 C 141.768 157.249,141.877 158.152,141.784 160.265 C 141.726 161.589,141.756 162.348,141.852 161.951 C 142.288 160.140,142.044 157.349,141.009 152.318 C 140.437 149.536,139.957 147.417,139.942 147.609 M55.027 148.104 C 55.292 148.217,55.671 148.311,55.870 148.311 C 56.098 148.311,56.053 148.234,55.750 148.104 C 55.485 147.990,55.105 147.897,54.907 147.897 C 54.679 147.897,54.724 147.973,55.027 148.104 M68.453 150.678 C 68.685 150.738,69.064 150.738,69.296 150.678 C 69.527 150.617,69.338 150.568,68.874 150.568 C 68.411 150.568,68.221 150.617,68.453 150.678 M70.981 150.923 C 71.279 150.980,71.767 150.980,72.065 150.923 C 72.363 150.865,72.119 150.818,71.523 150.818 C 70.927 150.818,70.683 150.865,70.981 150.923 M81.099 150.923 C 81.398 150.980,81.832 150.978,82.062 150.918 C 82.292 150.858,82.047 150.811,81.517 150.813 C 80.987 150.816,80.799 150.865,81.099 150.923 M109.452 151.140 C 107.972 151.683,104.935 152.435,101.746 153.048 C 100.157 153.353,99.099 153.612,99.396 153.623 C 100.940 153.679,110.777 151.295,110.777 150.864 C 110.777 150.696,110.511 150.751,109.452 151.140 M47.923 151.234 C 48.254 151.340,48.796 151.425,49.127 151.423 C 49.668 151.418,49.656 151.399,49.007 151.234 C 47.988 150.975,47.114 150.975,47.923 151.234 M75.203 151.171 C 75.836 151.220,76.811 151.220,77.370 151.169 C 77.929 151.119,77.411 151.078,76.219 151.079 C 75.027 151.080,74.570 151.121,75.203 151.171 M52.389 152.084 C 54.307 152.505,62.119 153.649,62.869 153.618 C 63.192 153.605,61.451 153.293,59.001 152.925 C 56.550 152.557,53.902 152.134,53.117 151.986 C 51.154 151.615,50.597 151.690,52.389 152.084 M63.998 153.812 C 64.296 153.870,64.783 153.870,65.081 153.812 C 65.379 153.755,65.135 153.708,64.539 153.708 C 63.943 153.708,63.700 153.755,63.998 153.812 M96.207 153.883 C 95.396 154.028,95.358 154.058,95.966 154.072 C 96.364 154.081,97.176 154.002,97.772 153.895 C 98.745 153.722,98.769 153.703,98.013 153.707 C 97.550 153.709,96.737 153.788,96.207 153.883 M66.165 154.053 C 66.463 154.111,66.951 154.111,67.249 154.053 C 67.547 153.996,67.303 153.949,66.707 153.949 C 66.111 153.949,65.867 153.996,66.165 154.053 M68.817 154.294 C 69.116 154.352,69.550 154.350,69.780 154.289 C 70.010 154.229,69.765 154.182,69.235 154.185 C 68.706 154.187,68.517 154.237,68.817 154.294 M93.380 154.294 C 93.680 154.352,94.113 154.350,94.344 154.289 C 94.574 154.229,94.329 154.182,93.799 154.185 C 93.269 154.187,93.081 154.237,93.380 154.294 M71.945 154.539 C 72.375 154.592,73.079 154.592,73.510 154.539 C 73.940 154.486,73.588 154.442,72.727 154.442 C 71.866 154.442,71.514 154.486,71.945 154.539 M89.765 154.539 C 90.196 154.592,90.900 154.592,91.331 154.539 C 91.761 154.486,91.409 154.442,90.548 154.442 C 89.687 154.442,89.335 154.486,89.765 154.539 M78.822 154.786 C 80.518 154.827,83.228 154.827,84.842 154.785 C 86.457 154.744,85.069 154.710,81.758 154.710 C 78.447 154.710,77.126 154.744,78.822 154.786 M31.392 159.302 C 31.391 160.494,31.432 161.012,31.482 160.453 C 31.533 159.894,31.534 158.919,31.484 158.285 C 31.434 157.652,31.393 158.110,31.392 159.302 M141.377 163.034 C 141.335 163.756,140.103 166.073,139.136 167.249 L 138.147 168.453 139.047 167.610 C 140.025 166.694,141.734 163.513,141.527 162.994 C 141.429 162.750,141.394 162.760,141.377 163.034 M32.916 165.627 C 33.150 166.060,33.774 166.819,34.302 167.313 L 35.261 168.212 34.307 167.128 C 33.783 166.532,33.159 165.774,32.921 165.443 C 32.504 164.861,32.504 164.867,32.916 165.627 M77.805 166.734 C 77.860 166.782,82.402 166.870,87.899 166.929 C 93.396 166.988,96.321 166.963,94.401 166.872 C 90.680 166.696,77.636 166.588,77.805 166.734 M72.426 167.066 C 73.387 167.112,74.958 167.112,75.918 167.066 C 76.878 167.021,76.093 166.983,74.172 166.983 C 72.252 166.983,71.466 167.021,72.426 167.066 M68.086 167.302 C 68.514 167.355,69.272 167.356,69.772 167.304 C 70.272 167.252,69.922 167.208,68.995 167.207 C 68.067 167.206,67.659 167.249,68.086 167.302 M98.796 167.304 C 99.293 167.356,100.105 167.356,100.602 167.304 C 101.099 167.252,100.692 167.209,99.699 167.209 C 98.706 167.209,98.299 167.252,98.796 167.304 M64.840 167.542 C 65.205 167.597,65.801 167.597,66.165 167.542 C 66.529 167.486,66.231 167.441,65.503 167.441 C 64.774 167.441,64.476 167.486,64.840 167.542 M103.015 167.544 C 103.447 167.597,104.098 167.596,104.459 167.541 C 104.821 167.486,104.467 167.442,103.672 167.444 C 102.878 167.445,102.582 167.490,103.015 167.544 M62.071 167.780 C 62.369 167.837,62.857 167.837,63.155 167.780 C 63.453 167.722,63.209 167.675,62.613 167.675 C 62.017 167.675,61.773 167.722,62.071 167.780 M106.141 167.780 C 106.439 167.837,106.927 167.837,107.225 167.780 C 107.523 167.722,107.279 167.675,106.683 167.675 C 106.087 167.675,105.843 167.722,106.141 167.780 M59.542 168.017 C 59.774 168.077,60.154 168.077,60.385 168.017 C 60.617 167.956,60.427 167.907,59.964 167.907 C 59.500 167.907,59.311 167.956,59.542 168.017 M109.034 168.021 C 109.333 168.079,109.767 168.076,109.997 168.016 C 110.227 167.956,109.982 167.909,109.452 167.911 C 108.922 167.914,108.734 167.963,109.034 168.021 M57.375 168.258 C 57.607 168.318,57.986 168.318,58.218 168.258 C 58.450 168.197,58.260 168.147,57.797 168.147 C 57.333 168.147,57.143 168.197,57.375 168.258 M111.683 168.262 C 111.982 168.319,112.416 168.317,112.646 168.257 C 112.876 168.197,112.631 168.150,112.101 168.152 C 111.571 168.155,111.383 168.204,111.683 168.262 M116.376 168.739 C 116.607 168.800,116.987 168.800,117.219 168.739 C 117.450 168.679,117.261 168.629,116.797 168.629 C 116.334 168.629,116.144 168.679,116.376 168.739 M41.481 170.193 C 41.978 170.245,42.790 170.245,43.287 170.193 C 43.784 170.142,43.377 170.099,42.384 170.099 C 41.391 170.099,40.984 170.142,41.481 170.193 M130.229 170.436 C 130.796 170.486,131.662 170.486,132.156 170.434 C 132.649 170.382,132.185 170.341,131.126 170.341 C 130.066 170.342,129.663 170.385,130.229 170.436 " stroke="none" fill="#f39475" fill-rule="evenodd"></path><path id="path4" d="M295.846 94.780 C 294.601 95.391,294.852 95.360,296.636 94.683 C 298.982 93.793,299.136 95.179,297.301 100.645 C 296.570 102.821,296.014 104.643,296.065 104.694 C 296.261 104.890,298.856 96.642,298.856 95.823 C 298.856 94.156,297.838 93.803,295.846 94.780 M170.067 95.412 C 169.100 95.682,168.354 95.948,168.409 96.003 C 168.464 96.058,169.337 95.876,170.350 95.598 C 173.460 94.744,173.924 95.453,172.799 99.338 C 172.723 99.603,172.818 99.482,173.012 99.069 C 173.679 97.649,173.754 95.969,173.176 95.392 C 172.563 94.779,172.322 94.780,170.067 95.412 M199.037 95.139 C 198.515 95.283,198.659 95.303,199.558 95.211 C 200.269 95.138,201.042 95.201,201.364 95.358 C 201.900 95.619,201.905 95.614,201.459 95.257 C 200.959 94.856,200.197 94.819,199.037 95.139 M239.635 94.969 C 239.690 95.017,240.927 95.112,242.384 95.181 C 244.076 95.260,244.641 95.235,243.949 95.112 C 242.866 94.918,239.445 94.806,239.635 94.969 M340.538 94.969 C 340.593 95.017,341.722 95.113,343.046 95.181 C 344.610 95.262,345.117 95.237,344.491 95.108 C 343.541 94.913,340.343 94.801,340.538 94.969 M237.508 95.296 C 237.872 95.351,238.468 95.351,238.832 95.296 C 239.196 95.241,238.898 95.196,238.170 95.196 C 237.441 95.196,237.143 95.241,237.508 95.296 M338.173 95.296 C 338.539 95.352,339.081 95.350,339.377 95.293 C 339.673 95.236,339.374 95.190,338.712 95.192 C 338.049 95.194,337.807 95.241,338.173 95.296 M196.147 95.605 C 195.145 95.860,196.131 95.871,197.351 95.619 C 198.161 95.451,198.199 95.420,197.592 95.420 C 197.194 95.421,196.544 95.504,196.147 95.605 M245.174 95.451 C 245.229 95.498,245.707 95.603,246.237 95.685 C 246.893 95.785,247.085 95.759,246.839 95.602 C 246.510 95.392,244.940 95.249,245.174 95.451 M336.063 95.605 C 335.449 95.869,336.082 95.869,336.905 95.605 C 337.389 95.450,337.413 95.411,337.026 95.405 C 336.761 95.401,336.328 95.491,336.063 95.605 M193.855 96.388 C 193.126 96.882,191.689 100.017,192.033 100.361 C 192.086 100.414,192.207 100.206,192.303 99.898 C 193.099 97.322,193.430 96.762,194.427 96.309 C 194.976 96.060,195.251 95.854,195.039 95.851 C 194.826 95.848,194.294 96.090,193.855 96.388 M254.485 96.505 C 255.181 96.554,256.318 96.554,257.014 96.505 C 257.709 96.456,257.140 96.417,255.750 96.417 C 254.359 96.417,253.790 96.456,254.485 96.505 M355.036 96.506 C 355.802 96.554,356.994 96.553,357.685 96.505 C 358.375 96.456,357.748 96.417,356.291 96.418 C 354.834 96.418,354.269 96.458,355.036 96.506 M251.462 97.471 C 250.880 98.296,249.678 100.662,249.841 100.662 C 249.908 100.662,250.248 100.093,250.599 99.398 C 250.949 98.703,251.446 97.836,251.703 97.471 C 251.960 97.107,252.116 96.809,252.050 96.809 C 251.983 96.809,251.719 97.107,251.462 97.471 M351.042 99.278 C 349.881 101.369,348.608 103.962,348.885 103.672 C 349.194 103.349,352.126 97.772,351.987 97.772 C 351.927 97.772,351.502 98.450,351.042 99.278 M226.548 99.312 C 224.320 100.582,221.703 102.496,220.710 103.581 C 220.276 104.056,220.506 103.916,221.286 103.232 C 222.694 101.997,225.874 99.839,227.514 99.005 C 228.076 98.719,228.537 98.433,228.537 98.370 C 228.537 98.183,228.491 98.205,226.548 99.312 M259.631 98.576 C 259.615 98.819,259.056 100.485,258.388 102.278 C 257.720 104.071,257.215 105.579,257.265 105.629 C 257.444 105.808,259.868 98.926,259.765 98.534 C 259.675 98.195,259.654 98.202,259.631 98.576 M347.429 100.074 L 346.537 101.877 345.875 101.482 L 345.214 101.087 345.809 101.578 C 346.136 101.848,346.491 102.016,346.598 101.950 C 346.848 101.795,348.523 98.473,348.408 98.358 C 348.360 98.310,347.920 99.082,347.429 100.074 M326.475 99.741 C 325.326 100.426,324.032 101.295,323.601 101.673 C 323.151 102.068,323.483 101.909,324.383 101.300 C 325.244 100.718,326.571 99.892,327.333 99.465 C 328.531 98.794,328.935 98.495,328.641 98.495 C 328.599 98.495,327.624 99.056,326.475 99.741 M237.628 99.146 C 237.926 99.204,238.414 99.204,238.712 99.146 C 239.010 99.089,238.766 99.042,238.170 99.042 C 237.574 99.042,237.330 99.089,237.628 99.146 M286.779 99.343 C 285.829 99.858,283.860 104.957,283.944 106.683 C 283.954 106.881,284.280 105.855,284.670 104.403 C 285.366 101.808,286.208 99.699,286.550 99.699 C 286.645 99.699,286.933 99.540,287.191 99.345 C 287.784 98.897,287.602 98.895,286.779 99.343 M338.290 99.146 C 338.588 99.204,339.076 99.204,339.374 99.146 C 339.672 99.089,339.428 99.042,338.832 99.042 C 338.236 99.042,337.992 99.089,338.290 99.146 M235.521 99.442 C 234.142 99.862,232.116 101.030,231.026 102.034 L 229.862 103.107 231.066 102.151 C 232.467 101.038,234.463 99.991,236.002 99.562 C 236.598 99.396,236.869 99.260,236.604 99.260 C 236.340 99.259,235.852 99.341,235.521 99.442 M240.578 99.601 C 241.306 99.795,242.769 100.380,243.829 100.901 C 244.889 101.422,245.539 101.682,245.274 101.477 C 244.072 100.551,240.756 99.202,239.758 99.233 C 239.480 99.242,239.849 99.408,240.578 99.601 M336.183 99.442 C 333.843 100.154,330.595 102.466,328.862 104.654 C 327.980 105.767,328.009 105.750,329.343 104.376 C 331.922 101.719,334.145 100.255,336.654 99.562 C 337.256 99.396,337.532 99.260,337.267 99.260 C 337.002 99.259,336.514 99.341,336.183 99.442 M341.481 99.628 C 341.680 99.700,342.578 100.068,343.478 100.445 C 344.378 100.823,345.056 101.038,344.985 100.923 C 344.827 100.666,341.829 99.451,341.418 99.477 C 341.242 99.488,341.267 99.550,341.481 99.628 M172.375 100.307 C 172.301 100.569,172.167 100.999,172.077 101.264 C 171.987 101.529,172.090 101.441,172.306 101.069 C 172.521 100.697,172.656 100.266,172.604 100.112 C 172.553 99.958,172.450 100.046,172.375 100.307 M246.358 100.903 C 246.087 101.433,245.920 101.866,245.987 101.866 C 246.053 101.866,246.328 101.433,246.598 100.903 C 246.869 100.373,247.036 99.940,246.969 99.940 C 246.903 99.940,246.628 100.373,246.358 100.903 M160.752 104.434 C 160.137 106.399,159.467 108.529,159.263 109.167 C 159.059 109.804,158.938 110.373,158.994 110.429 C 159.051 110.486,159.762 108.398,160.575 105.789 C 161.388 103.180,162.011 101.004,161.961 100.953 C 161.910 100.903,161.366 102.469,160.752 104.434 M200.040 102.629 C 199.687 103.446,199.438 104.154,199.485 104.201 C 199.532 104.248,199.860 103.619,200.214 102.803 C 200.568 101.987,200.818 101.279,200.769 101.231 C 200.721 101.183,200.393 101.812,200.040 102.629 M321.839 103.131 L 321.132 103.913 321.915 103.206 C 322.345 102.817,322.697 102.465,322.697 102.423 C 322.697 102.237,322.498 102.401,321.839 103.131 M358.606 103.338 C 358.458 103.764,358.378 104.154,358.430 104.205 C 358.481 104.257,358.645 103.951,358.793 103.525 C 358.942 103.100,359.021 102.709,358.969 102.658 C 358.918 102.606,358.754 102.912,358.606 103.338 M318.697 106.020 C 317.652 107.113,316.431 108.495,315.984 109.091 C 315.391 109.881,315.520 109.783,316.460 108.730 C 317.169 107.935,318.447 106.553,319.300 105.659 C 320.152 104.765,320.793 104.034,320.723 104.034 C 320.653 104.034,319.741 104.928,318.697 106.020 M218.532 105.539 C 216.487 107.694,215.674 108.609,215.803 108.609 C 215.871 108.609,216.821 107.634,217.915 106.442 C 219.008 105.250,219.864 104.275,219.816 104.275 C 219.769 104.275,219.191 104.843,218.532 105.539 M198.245 106.571 C 197.689 107.692,197.286 108.609,197.350 108.609 C 197.511 108.609,199.449 104.727,199.342 104.620 C 199.294 104.572,198.801 105.451,198.245 106.571 M227.896 105.057 C 227.181 105.857,225.330 108.380,224.848 109.211 L 224.429 109.934 224.978 109.227 C 226.129 107.747,228.506 104.515,228.444 104.515 C 228.409 104.515,228.162 104.759,227.896 105.057 M246.333 106.743 C 245.778 107.703,245.058 108.949,244.734 109.512 C 244.410 110.075,244.199 110.536,244.267 110.536 C 244.334 110.536,244.899 109.642,245.523 108.549 C 246.147 107.456,246.870 106.210,247.129 105.780 C 247.389 105.349,247.543 104.997,247.472 104.997 C 247.400 104.997,246.888 105.783,246.333 106.743 M356.916 108.030 C 356.367 109.578,355.959 110.886,356.010 110.937 C 356.061 110.988,356.554 109.765,357.104 108.218 C 357.655 106.671,358.062 105.363,358.010 105.311 C 357.958 105.258,357.465 106.482,356.916 108.030 M327.083 106.863 C 326.060 108.161,323.892 111.582,322.848 113.546 C 321.699 115.708,322.071 115.185,324.048 111.860 C 324.914 110.403,326.155 108.480,326.805 107.586 C 328.076 105.840,328.252 105.381,327.083 106.863 M344.596 110.837 C 343.508 112.724,342.572 114.350,342.517 114.449 C 342.461 114.548,342.467 114.630,342.530 114.630 C 342.593 114.630,343.345 113.411,344.202 111.921 C 345.058 110.430,345.999 108.805,346.293 108.308 C 346.586 107.812,346.770 107.405,346.701 107.405 C 346.631 107.405,345.684 108.949,344.596 110.837 M188.600 108.499 C 188.197 109.385,188.274 109.574,188.710 108.769 C 188.914 108.393,189.035 108.040,188.980 107.985 C 188.925 107.930,188.754 108.161,188.600 108.499 M168.711 109.951 C 168.622 110.304,168.596 110.639,168.653 110.696 C 168.710 110.753,168.829 110.510,168.917 110.157 C 169.006 109.804,169.032 109.469,168.975 109.413 C 168.918 109.356,168.799 109.598,168.711 109.951 M213.455 111.600 C 212.322 113.175,210.935 115.428,211.368 114.991 C 211.734 114.621,214.791 110.054,214.672 110.054 C 214.614 110.054,214.067 110.750,213.455 111.600 M186.549 113.340 C 185.934 114.756,185.469 115.953,185.516 116.000 C 185.563 116.047,186.105 114.927,186.720 113.511 C 187.335 112.095,187.800 110.899,187.753 110.852 C 187.706 110.805,187.164 111.925,186.549 113.340 M167.249 114.389 C 166.625 116.260,166.162 117.838,166.220 117.896 C 166.278 117.954,166.826 116.461,167.439 114.579 C 168.051 112.697,168.514 111.119,168.467 111.072 C 168.421 111.025,167.872 112.518,167.249 114.389 M312.914 113.320 C 311.495 115.497,309.220 119.641,309.221 120.048 C 309.221 120.181,309.797 119.196,310.500 117.861 C 311.202 116.525,312.390 114.494,313.138 113.346 C 313.886 112.198,314.444 111.258,314.378 111.258 C 314.312 111.258,313.653 112.186,312.914 113.320 M355.475 112.007 C 355.327 112.433,355.248 112.823,355.299 112.875 C 355.351 112.926,355.514 112.620,355.663 112.195 C 355.811 111.769,355.890 111.379,355.839 111.327 C 355.787 111.276,355.624 111.582,355.475 112.007 M193.119 115.637 C 191.871 117.647,190.762 119.435,190.656 119.610 C 190.550 119.785,190.513 119.928,190.572 119.928 C 190.687 119.928,193.796 115.069,194.926 113.125 C 196.357 110.661,195.273 112.169,193.119 115.637 M292.045 116.368 C 291.287 118.634,290.709 120.531,290.762 120.584 C 290.816 120.637,291.478 118.825,292.234 116.556 C 292.990 114.288,293.567 112.391,293.516 112.340 C 293.466 112.290,292.804 114.102,292.045 116.368 M220.117 117.580 C 219.212 119.467,218.406 121.282,218.325 121.613 L 218.179 122.216 218.460 121.613 C 218.614 121.282,219.474 119.467,220.372 117.580 C 221.269 115.692,221.949 114.148,221.883 114.148 C 221.817 114.148,221.022 115.692,220.117 117.580 M252.407 118.994 C 251.865 120.615,251.462 121.982,251.513 122.032 C 251.563 122.082,252.047 120.797,252.590 119.176 C 253.132 117.555,253.535 116.188,253.484 116.137 C 253.434 116.087,252.950 117.373,252.407 118.994 M184.753 117.411 C 184.028 118.904,184.109 119.113,184.856 117.677 C 185.190 117.035,185.422 116.468,185.372 116.418 C 185.322 116.367,185.043 116.814,184.753 117.411 M238.597 119.807 C 237.452 121.595,236.565 123.058,236.628 123.058 C 236.747 123.058,240.066 118.016,240.550 117.098 C 241.217 115.833,240.547 116.763,238.597 119.807 M165.587 119.591 C 165.354 120.329,165.207 120.977,165.260 121.030 C 165.313 121.083,165.547 120.522,165.780 119.783 C 166.012 119.045,166.160 118.397,166.107 118.344 C 166.054 118.291,165.820 118.852,165.587 119.591 M337.683 122.115 C 336.605 123.716,335.876 124.899,336.062 124.745 C 336.525 124.361,339.941 119.205,339.733 119.205 C 339.683 119.205,338.761 120.515,337.683 122.115 M208.347 120.540 C 207.944 121.426,208.021 121.615,208.457 120.810 C 208.661 120.434,208.783 120.081,208.727 120.026 C 208.672 119.971,208.501 120.202,208.347 120.540 M351.717 122.743 C 350.369 126.670,349.189 130.374,349.199 130.644 C 349.204 130.777,350.013 128.507,350.997 125.600 C 351.980 122.693,352.746 120.275,352.698 120.227 C 352.650 120.180,352.209 121.312,351.717 122.743 M182.230 122.706 C 181.741 123.694,181.392 124.503,181.456 124.503 C 181.617 124.503,183.314 121.103,183.207 120.995 C 183.159 120.947,182.719 121.717,182.230 122.706 M188.561 122.697 C 188.151 123.293,187.870 123.781,187.936 123.781 C 188.002 123.781,188.392 123.293,188.802 122.697 C 189.212 122.101,189.493 121.613,189.427 121.613 C 189.361 121.613,188.971 122.101,188.561 122.697 M317.780 124.950 C 317.173 126.807,316.682 128.469,316.689 128.642 C 316.695 128.816,317.232 127.337,317.881 125.355 C 318.530 123.372,319.022 121.711,318.973 121.662 C 318.924 121.613,318.387 123.093,317.780 124.950 M279.611 122.958 C 279.455 123.575,279.373 124.125,279.428 124.181 C 279.484 124.236,279.656 123.776,279.811 123.159 C 279.967 122.542,280.049 121.991,279.994 121.936 C 279.938 121.881,279.766 122.341,279.611 122.958 M250.721 123.809 C 250.442 124.634,250.255 125.351,250.306 125.401 C 250.357 125.452,250.626 124.818,250.905 123.993 C 251.183 123.168,251.370 122.452,251.319 122.401 C 251.269 122.350,250.999 122.984,250.721 123.809 M239.364 124.866 C 236.784 128.135,236.366 128.698,236.643 128.527 C 236.797 128.432,237.707 127.325,238.665 126.068 C 240.587 123.544,240.644 123.492,240.457 124.443 C 240.328 125.096,240.330 125.097,240.581 124.518 C 241.202 123.092,240.636 123.253,239.364 124.866 M185.714 126.671 C 184.636 128.128,183.801 129.320,183.859 129.320 C 183.917 129.320,184.598 128.480,185.372 127.453 C 187.124 125.132,187.901 124.022,187.773 124.022 C 187.719 124.022,186.793 125.214,185.714 126.671 M206.286 125.917 C 205.473 128.490,205.174 130.450,205.216 132.932 C 205.249 134.912,205.256 134.885,205.428 132.089 C 205.598 129.313,205.950 127.473,206.741 125.232 C 206.943 124.657,207.062 124.140,207.004 124.082 C 206.946 124.024,206.623 124.850,206.286 125.917 M278.649 126.572 C 278.362 127.719,278.170 128.702,278.225 128.756 C 278.279 128.811,278.559 127.916,278.846 126.769 C 279.134 125.622,279.325 124.639,279.271 124.585 C 279.217 124.531,278.937 125.425,278.649 126.572 M154.771 126.725 C 153.239 134.654,153.802 139.428,156.568 141.965 L 157.353 142.685 156.546 141.733 C 154.038 138.776,153.524 133.878,154.982 126.827 C 155.196 125.793,155.323 124.899,155.263 124.840 C 155.204 124.781,154.982 125.629,154.771 126.725 M180.008 126.731 C 179.375 127.824,178.697 128.961,178.503 129.259 C 178.309 129.557,178.210 129.801,178.282 129.801 C 178.405 129.801,180.446 126.499,181.073 125.286 C 181.743 123.990,181.063 124.913,180.008 126.731 M338.433 126.851 C 337.537 128.010,336.219 129.663,335.504 130.524 L 334.203 132.089 335.436 130.765 C 336.749 129.354,340.383 124.744,340.182 124.744 C 340.116 124.744,339.329 125.692,338.433 126.851 M233.441 127.092 C 232.548 128.251,231.341 129.795,230.757 130.524 C 229.797 131.723,229.785 131.755,230.622 130.859 C 231.684 129.724,235.365 124.985,235.185 124.985 C 235.119 124.985,234.335 125.933,233.441 127.092 M239.648 127.210 C 237.642 134.851,237.729 140.490,239.886 142.556 C 240.664 143.302,241.825 144.009,242.264 144.003 C 242.462 144.001,242.191 143.798,241.662 143.553 C 238.121 141.914,237.483 137.126,239.633 128.322 C 240.026 126.713,240.307 125.357,240.259 125.308 C 240.210 125.260,239.936 126.115,239.648 127.210 M334.738 126.189 C 334.318 126.719,334.029 127.152,334.096 127.152 C 334.162 127.152,334.559 126.719,334.979 126.189 C 335.399 125.659,335.688 125.226,335.621 125.226 C 335.555 125.226,335.158 125.659,334.738 126.189 M263.095 128.318 C 262.697 128.561,262.210 128.966,262.011 129.218 C 261.809 129.474,261.994 129.392,262.431 129.033 C 264.358 127.447,265.682 128.396,264.423 130.461 C 263.450 132.057,256.149 139.447,253.947 141.065 C 252.292 142.281,251.931 142.620,252.980 141.974 C 255.187 140.617,263.430 132.484,264.684 130.428 C 265.741 128.695,264.712 127.329,263.095 128.318 M363.757 128.318 C 363.359 128.561,362.872 128.966,362.673 129.218 C 362.471 129.474,362.656 129.392,363.093 129.033 C 364.117 128.190,364.767 128.000,365.273 128.397 C 365.642 128.686,365.650 128.676,365.353 128.296 C 364.935 127.764,364.657 127.768,363.757 128.318 M331.749 130.036 C 331.003 130.960,329.609 132.497,328.652 133.453 C 327.354 134.748,327.201 134.958,328.051 134.276 C 329.014 133.505,329.923 132.498,333.017 128.778 C 333.210 128.546,333.309 128.356,333.237 128.356 C 333.165 128.356,332.496 129.112,331.749 130.036 M277.565 130.665 C 277.343 131.548,277.207 132.314,277.261 132.369 C 277.316 132.423,277.542 131.746,277.763 130.864 C 277.985 129.982,278.121 129.215,278.067 129.161 C 278.012 129.106,277.786 129.783,277.565 130.665 M358.955 132.638 C 355.967 135.575,355.653 135.967,357.736 134.153 C 358.684 133.328,362.323 129.554,362.156 129.568 C 362.109 129.572,360.669 130.953,358.955 132.638 M305.930 132.571 C 305.930 134.028,305.970 134.593,306.018 133.826 C 306.066 133.060,306.066 131.868,306.017 131.177 C 305.969 130.487,305.929 131.114,305.930 132.571 M232.299 133.506 C 229.275 137.013,227.578 138.639,225.166 140.340 C 222.503 142.218,222.584 142.359,225.286 140.550 C 227.361 139.161,235.929 130.283,235.195 130.283 C 235.130 130.283,233.826 131.733,232.299 133.506 M288.870 132.925 C 285.584 135.925,285.693 135.877,286.334 134.016 C 286.599 133.244,286.774 132.570,286.722 132.518 C 286.604 132.400,285.611 135.310,285.611 135.773 C 285.611 135.960,286.343 135.455,287.237 134.651 C 290.209 131.980,291.994 130.304,291.872 130.299 C 291.806 130.296,290.455 131.478,288.870 132.925 M258.229 132.848 C 256.681 134.373,256.367 134.753,257.315 133.952 C 258.919 132.597,260.995 130.524,260.748 130.524 C 260.660 130.524,259.527 131.570,258.229 132.848 M316.233 132.089 C 316.177 134.754,317.347 137.269,318.639 137.266 C 318.818 137.265,318.618 137.053,318.194 136.795 C 317.061 136.104,316.619 135.043,316.432 132.571 L 316.268 130.403 316.233 132.089 M180.535 133.126 C 178.135 135.881,175.267 138.669,173.321 140.139 C 171.667 141.387,171.485 141.717,173.069 140.593 C 174.673 139.455,179.532 134.733,181.308 132.586 C 183.453 129.993,182.968 130.331,180.535 133.126 M359.783 136.064 C 356.936 138.962,354.877 141.134,355.208 140.891 C 356.453 139.978,365.478 130.721,365.066 130.780 C 365.008 130.788,362.631 133.166,359.783 136.064 M215.602 132.330 C 215.603 132.992,215.650 133.235,215.706 132.868 C 215.761 132.502,215.759 131.961,215.702 131.664 C 215.645 131.368,215.600 131.668,215.602 132.330 M292.836 133.942 C 291.551 135.173,291.181 135.599,291.993 134.914 C 293.398 133.729,295.452 131.716,295.232 131.739 C 295.173 131.746,294.094 132.737,292.836 133.942 M348.619 132.260 C 348.538 132.563,348.481 133.028,348.492 133.293 C 348.504 133.558,348.612 133.352,348.734 132.835 C 348.968 131.835,348.868 131.331,348.619 132.260 M228.657 132.879 C 228.128 133.373,227.152 134.250,226.490 134.829 C 225.736 135.488,225.596 135.672,226.114 135.321 C 226.958 134.750,229.960 131.987,229.741 131.983 C 229.675 131.982,229.187 132.385,228.657 132.879 M331.968 134.618 C 329.772 137.169,327.370 139.366,325.211 140.800 C 323.940 141.644,323.461 142.095,324.328 141.631 C 326.668 140.378,335.198 132.210,334.166 132.210 C 334.098 132.210,333.109 133.293,331.968 134.618 M339.129 132.932 C 339.129 133.396,339.178 133.585,339.239 133.353 C 339.299 133.122,339.299 132.742,339.239 132.511 C 339.178 132.279,339.129 132.468,339.129 132.932 M175.410 133.594 C 174.901 134.223,173.943 135.334,173.282 136.063 L 172.080 137.387 173.228 136.303 C 174.315 135.277,176.675 132.450,176.445 132.450 C 176.386 132.450,175.920 132.965,175.410 133.594 M247.877 134.256 C 247.879 135.051,247.923 135.347,247.977 134.914 C 248.031 134.482,248.030 133.831,247.975 133.469 C 247.920 133.108,247.876 133.462,247.877 134.256 M162.150 135.220 C 162.151 136.147,162.195 136.497,162.247 135.997 C 162.299 135.497,162.298 134.739,162.245 134.311 C 162.192 133.884,162.149 134.293,162.150 135.220 M338.920 136.665 C 338.921 137.989,338.961 138.500,339.010 137.800 C 339.059 137.101,339.058 136.017,339.009 135.392 C 338.959 134.768,338.919 135.340,338.920 136.665 M289.451 136.966 L 288.621 137.869 289.524 137.039 C 290.365 136.266,290.538 136.063,290.354 136.063 C 290.314 136.063,289.908 136.469,289.451 136.966 M205.788 137.146 C 206.044 138.521,207.088 140.282,208.358 141.481 C 209.627 142.680,209.628 142.680,208.647 141.601 C 207.267 140.085,206.670 139.159,206.125 137.693 C 205.866 136.995,205.714 136.749,205.788 137.146 M171.223 137.783 C 168.387 140.142,164.704 140.521,163.113 138.619 C 162.664 138.081,162.588 138.039,162.845 138.471 C 164.240 140.811,169.178 140.406,171.577 137.755 C 172.142 137.132,171.992 137.143,171.223 137.783 M286.525 139.451 C 284.799 141.026,282.898 144.748,283.509 145.359 C 283.561 145.411,283.894 144.506,284.248 143.347 C 284.874 141.303,284.948 141.189,286.757 139.504 C 287.782 138.549,288.567 137.766,288.501 137.763 C 288.435 137.761,287.546 138.521,286.525 139.451 M308.970 141.481 C 309.690 142.210,310.333 142.806,310.399 142.806 C 310.465 142.806,309.931 142.210,309.211 141.481 C 308.492 140.753,307.849 140.157,307.783 140.157 C 307.717 140.157,308.251 140.753,308.970 141.481 M339.314 140.490 C 339.314 140.748,340.030 142.083,340.169 142.083 C 340.235 142.083,340.110 141.731,339.891 141.300 C 339.444 140.421,339.314 140.238,339.314 140.490 M216.315 144.176 C 216.547 144.236,216.927 144.236,217.158 144.176 C 217.390 144.115,217.200 144.066,216.737 144.066 C 216.273 144.066,216.084 144.115,216.315 144.176 M268.889 150.467 L 264.088 155.449 268.724 150.873 C 272.601 147.046,274.156 145.379,273.759 145.470 C 273.721 145.479,271.530 147.728,268.889 150.467 M267.386 156.747 C 265.773 158.417,263.990 160.325,263.424 160.987 C 262.859 161.650,264.114 160.424,266.214 158.263 C 269.068 155.325,270.088 154.414,270.258 154.651 C 270.425 154.883,270.449 154.855,270.349 154.545 C 270.275 154.314,270.319 154.124,270.447 154.124 C 270.575 154.124,270.680 154.016,270.680 153.883 C 270.680 153.405,270.272 153.759,267.386 156.747 M278.777 159.572 C 278.169 161.392,277.712 162.922,277.762 162.972 C 277.812 163.022,278.351 161.574,278.959 159.754 C 279.568 157.934,280.024 156.404,279.974 156.354 C 279.924 156.304,279.385 157.752,278.777 159.572 M261.138 158.520 C 259.695 160.043,256.868 163.413,256.140 164.479 C 255.616 165.247,256.459 164.306,258.297 162.071 C 259.332 160.813,260.825 159.106,261.615 158.278 C 262.404 157.450,262.993 156.773,262.922 156.773 C 262.852 156.773,262.049 157.559,261.138 158.520 M277.209 164.024 C 277.061 164.450,276.982 164.840,277.033 164.892 C 277.085 164.943,277.248 164.637,277.396 164.212 C 277.545 163.786,277.624 163.396,277.573 163.344 C 277.521 163.293,277.358 163.599,277.209 164.024 M260.498 164.539 C 259.215 166.290,257.157 169.392,257.503 169.055 C 257.940 168.629,261.312 163.757,261.170 163.757 C 261.116 163.757,260.814 164.109,260.498 164.539 M265.642 168.111 C 265.220 169.322,264.922 170.361,264.981 170.420 C 265.041 170.479,265.425 169.527,265.835 168.303 C 266.245 167.080,266.543 166.041,266.496 165.994 C 266.449 165.948,266.065 166.900,265.642 168.111 M252.672 169.356 C 251.317 171.384,250.268 173.135,250.615 172.787 C 250.969 172.433,254.072 167.610,253.945 167.610 C 253.886 167.610,253.313 168.396,252.672 169.356 M264.207 172.214 C 263.928 173.039,263.741 173.755,263.792 173.806 C 263.843 173.857,264.112 173.223,264.391 172.398 C 264.669 171.573,264.856 170.856,264.805 170.806 C 264.755 170.755,264.485 171.389,264.207 172.214 M273.493 173.039 C 272.927 174.226,273.007 174.428,273.598 173.307 C 273.867 172.797,274.044 172.338,273.992 172.286 C 273.940 172.234,273.715 172.573,273.493 173.039 M249.609 174.353 C 249.403 174.750,249.289 175.075,249.355 175.075 C 249.422 175.075,249.644 174.750,249.849 174.353 C 250.055 173.955,250.169 173.630,250.103 173.630 C 250.036 173.630,249.814 173.955,249.609 174.353 M253.462 175.075 C 253.256 175.473,253.142 175.798,253.209 175.798 C 253.275 175.798,253.497 175.473,253.703 175.075 C 253.908 174.678,254.022 174.353,253.956 174.353 C 253.890 174.353,253.667 174.678,253.462 175.075 M271.937 176.339 C 271.790 176.637,271.222 177.694,270.674 178.688 C 270.126 179.681,269.788 180.385,269.923 180.253 C 270.287 179.895,272.408 176.000,272.298 175.890 C 272.246 175.838,272.083 176.040,271.937 176.339 M251.903 178.071 C 251.235 179.628,251.309 179.778,252.045 178.363 C 252.379 177.721,252.593 177.137,252.521 177.065 C 252.449 176.993,252.171 177.446,251.903 178.071 M246.984 180.342 C 245.481 185.098,245.542 188.661,247.162 190.781 C 247.894 191.738,249.700 192.888,250.452 192.877 C 250.650 192.874,250.379 192.698,249.849 192.486 C 246.058 190.971,245.153 186.870,247.192 180.448 C 247.517 179.425,247.741 178.546,247.690 178.495 C 247.639 178.444,247.321 179.275,246.984 180.342 M250.961 180.397 C 250.813 180.821,250.700 181.287,250.709 181.433 C 250.719 181.578,250.882 181.274,251.072 180.756 C 251.261 180.237,251.375 179.771,251.323 179.720 C 251.272 179.668,251.109 179.973,250.961 180.397 M260.459 182.258 C 260.189 183.108,258.380 185.762,257.232 186.993 C 256.499 187.778,256.397 187.945,256.935 187.475 C 258.518 186.093,261.119 182.291,260.740 181.912 C 260.669 181.841,260.542 181.996,260.459 182.258 M266.681 184.889 C 266.304 185.385,265.559 186.269,265.027 186.853 C 264.494 187.436,264.173 187.870,264.313 187.816 C 264.766 187.643,267.796 183.986,267.486 183.986 C 267.420 183.986,267.058 184.392,266.681 184.889 M250.039 185.310 C 250.041 185.972,250.087 186.215,250.143 185.849 C 250.198 185.483,250.197 184.941,250.139 184.644 C 250.082 184.348,250.037 184.648,250.039 185.310 M250.218 187.043 C 250.214 187.201,250.455 187.585,250.753 187.897 C 251.051 188.209,251.174 188.296,251.027 188.091 C 250.880 187.886,250.640 187.502,250.493 187.237 C 250.346 186.972,250.222 186.884,250.218 187.043 M260.927 190.644 C 260.662 190.854,259.687 191.397,258.760 191.850 C 257.833 192.303,257.345 192.601,257.676 192.513 C 258.544 192.281,260.352 191.343,261.050 190.762 C 261.748 190.181,261.641 190.078,260.927 190.644 M255.268 192.896 C 254.451 193.068,254.447 193.073,255.148 193.081 C 255.545 193.085,256.141 193.002,256.472 192.896 C 257.262 192.643,256.469 192.643,255.268 192.896 M251.357 193.066 C 251.657 193.124,252.090 193.122,252.321 193.061 C 252.551 193.001,252.306 192.954,251.776 192.957 C 251.246 192.959,251.058 193.009,251.357 193.066 " stroke="none" fill="#9bb1da" fill-rule="evenodd"></path></g></svg>